<svg width="30" height="30" viewBox="0 0 30 30" fill="none" xmlns="http://www.w3.org/2000/svg">
<path d="M15 0C6.729 0 0 6.729 0 15C0 18.6225 1.291 21.949 3.437 24.544C3.4425 24.5515 3.443 24.561 3.449 24.568C4.9985 26.4365 6.9445 27.869 9.113 28.7945C9.138 28.805 9.1625 28.8165 9.1875 28.827C9.363 28.901 9.5405 28.9695 9.7185 29.0365C9.7885 29.063 9.8585 29.09 9.9295 29.1155C10.083 29.1705 10.2375 29.2225 10.393 29.2725C10.4925 29.3045 10.592 29.336 10.6925 29.366C10.83 29.407 10.968 29.4465 11.107 29.484C11.229 29.517 11.352 29.5475 11.475 29.577C11.5995 29.607 11.7245 29.637 11.85 29.6635C11.99 29.6935 12.1315 29.72 12.2735 29.746C12.3875 29.767 12.501 29.789 12.616 29.8075C12.7735 29.833 12.932 29.853 13.091 29.8735C13.1935 29.8865 13.2955 29.9015 13.3985 29.9125C13.5785 29.9315 13.76 29.945 13.942 29.9575C14.0265 29.9635 14.1105 29.9725 14.1955 29.977C14.461 29.992 14.7295 30 15 30C15.2705 30 15.539 29.992 15.8055 29.978C15.8905 29.9735 15.9745 29.9645 16.059 29.9585C16.241 29.9455 16.4225 29.9325 16.6025 29.9135C16.7055 29.9025 16.8075 29.8875 16.91 29.8745C17.069 29.854 17.2275 29.834 17.385 29.8085C17.4995 29.79 17.6135 29.768 17.7275 29.747C17.869 29.721 18.0105 29.6945 18.151 29.6645C18.2765 29.6375 18.401 29.608 18.526 29.578C18.649 29.548 18.772 29.5175 18.894 29.485C19.033 29.448 19.171 29.408 19.3085 29.367C19.409 29.337 19.5085 29.3055 19.608 29.2735C19.7635 29.2235 19.918 29.1715 20.0715 29.1165C20.142 29.091 20.212 29.064 20.2825 29.0375C20.461 28.9705 20.638 28.9015 20.8135 28.828C20.8385 28.8175 20.863 28.806 20.888 28.7955C23.056 27.87 25.0025 26.4375 26.552 24.569C26.558 24.562 26.5585 24.552 26.564 24.545C28.709 21.949 30 18.6225 30 15C30 6.729 23.271 0 15 0ZM21.0785 27.61C21.071 27.6135 21.064 27.6175 21.0565 27.621C20.878 27.707 20.6965 27.788 20.5135 27.867C20.472 27.8845 20.431 27.9025 20.3895 27.92C20.2295 27.987 20.0675 28.0505 19.9045 28.1115C19.8365 28.137 19.7685 28.162 19.7 28.186C19.5555 28.2375 19.4105 28.287 19.264 28.334C19.173 28.363 19.0815 28.3905 18.99 28.4175C18.86 28.4565 18.7295 28.494 18.5975 28.529C18.4865 28.5585 18.3745 28.5855 18.2625 28.612C18.145 28.64 18.028 28.6685 17.9095 28.6935C17.78 28.721 17.6495 28.7445 17.5195 28.768C17.414 28.7875 17.309 28.808 17.2025 28.825C17.056 28.848 16.908 28.8665 16.7605 28.885C16.667 28.897 16.574 28.911 16.4795 28.921C16.311 28.939 16.141 28.9505 15.9715 28.9625C15.896 28.9675 15.821 28.976 15.7445 28.98C15.497 28.993 15.249 29 15 29C14.751 29 14.503 28.993 14.256 28.98C14.18 28.976 14.105 28.968 14.029 28.9625C13.859 28.951 13.6895 28.939 13.521 28.921C13.4265 28.911 13.3335 28.897 13.24 28.885C13.0925 28.8665 12.9445 28.848 12.798 28.825C12.6915 28.808 12.5865 28.7875 12.481 28.768C12.3505 28.7445 12.22 28.7205 12.091 28.6935C11.9725 28.6685 11.855 28.64 11.738 28.612C11.626 28.585 11.514 28.5585 11.403 28.529C11.2715 28.494 11.1405 28.456 11.0105 28.4175C10.919 28.3905 10.8275 28.363 10.7365 28.334C10.59 28.287 10.4445 28.2375 10.3005 28.186C10.232 28.1615 10.164 28.1365 10.096 28.1115C9.933 28.0505 9.771 27.987 9.611 27.92C9.5695 27.903 9.529 27.885 9.4875 27.8675C9.3045 27.789 9.123 27.7075 8.944 27.6215C8.9365 27.618 8.9295 27.6145 8.922 27.6105C7.1775 26.7665 5.6365 25.5685 4.386 24.1135C5.3525 20.5545 8.0885 17.6855 11.6085 16.544C11.678 16.5865 11.7505 16.6245 11.822 16.6645C11.864 16.688 11.9055 16.713 11.948 16.7355C12.097 16.8145 12.248 16.8885 12.4025 16.955C12.521 17.007 12.6435 17.051 12.7655 17.096C12.7895 17.1045 12.8135 17.114 12.8375 17.1225C13.5155 17.3625 14.241 17.5 15 17.5C15.759 17.5 16.4845 17.3625 17.162 17.1225C17.186 17.114 17.21 17.1045 17.234 17.096C17.356 17.051 17.4785 17.007 17.597 16.955C17.7515 16.8885 17.9025 16.8145 18.0515 16.7355C18.094 16.7125 18.1355 16.688 18.1775 16.6645C18.249 16.6245 18.322 16.5865 18.392 16.5435C21.912 17.6855 24.6475 20.5545 25.6145 24.113C24.364 25.5675 22.823 26.7655 21.0785 27.61ZM9.5 11C9.5 7.9675 11.9675 5.5 15 5.5C18.0325 5.5 20.5 7.9675 20.5 11C20.5 12.929 19.4995 14.6265 17.992 15.6085C17.795 15.7365 17.59 15.851 17.3795 15.951C17.3545 15.963 17.33 15.9755 17.305 15.987C15.857 16.6455 14.143 16.6455 12.695 15.987C12.67 15.9755 12.645 15.963 12.6205 15.951C12.4095 15.851 12.205 15.7365 12.008 15.6085C10.5005 14.6265 9.5 12.929 9.5 11ZM26.3645 23.1615C25.231 19.8145 22.645 17.1095 19.341 15.8245C20.6625 14.634 21.5 12.915 21.5 11C21.5 7.416 18.584 4.5 15 4.5C11.416 4.5 8.5 7.416 8.5 11C8.5 12.915 9.3375 14.634 10.6595 15.8245C7.3555 17.11 4.7695 19.8145 3.636 23.1615C1.9795 20.862 1 18.044 1 15C1 7.2805 7.2805 1 15 1C22.7195 1 29 7.2805 29 15C29 18.044 28.0205 20.862 26.3645 23.1615Z" fill="black"/>
</svg>
