<svg width="30" height="30" viewBox="0 0 30 30" fill="none" xmlns="http://www.w3.org/2000/svg">
<path d="M27.8958 6.82295H21.4856V0.508447C21.4856 0.227784 21.2654 0 20.9939 0H9.00448C8.73307 0 8.51279 0.227784 8.51279 0.508447V6.82295H2.10346C1.84778 6.82295 1.63222 7.02958 1.61334 7.29316L0.00137498 29.4541C-0.00885225 29.5949 0.0383504 29.7348 0.130395 29.8365C0.22244 29.9406 0.353821 30 0.491495 30H29.5085C29.6462 30 29.7776 29.9406 29.8688 29.8373C29.9617 29.7348 30.0089 29.5949 29.9986 29.4533L28.3867 7.29316C28.3678 7.02958 28.1522 6.82295 27.8958 6.82295ZM20.9939 10.0453C21.2425 10.0453 21.4447 10.2535 21.4447 10.509C21.4447 10.7652 21.2425 10.9743 20.9939 10.9743C20.7453 10.9743 20.5432 10.7652 20.5432 10.509C20.5432 10.2535 20.7453 10.0453 20.9939 10.0453ZM9.49618 1.01771H20.5023V6.82376H9.49618V1.01771ZM9.00448 10.0453C9.25308 10.0453 9.45527 10.2535 9.45527 10.509C9.45527 10.7652 9.25308 10.9743 9.00448 10.9743C8.75588 10.9743 8.5537 10.7652 8.5537 10.509C8.5537 10.2535 8.75588 10.0453 9.00448 10.0453ZM1.02095 28.9839L2.55897 7.84066H8.51279V9.12438C7.96445 9.33265 7.57031 9.87282 7.57031 10.5098C7.57031 11.3274 8.21384 11.992 9.00448 11.992C9.79513 11.992 10.4387 11.3274 10.4387 10.5098C10.4387 9.87282 10.0445 9.33265 9.49618 9.12438V7.84066H20.5023V9.12438C19.9539 9.33265 19.5598 9.87282 19.5598 10.5098C19.5598 11.3274 20.2033 11.992 20.9939 11.992C21.7846 11.992 22.4281 11.3274 22.4281 10.5098C22.4281 9.87282 22.034 9.33265 21.4856 9.12438V7.84066H27.4402L28.9783 28.9839H1.02095Z" fill="#010002"/>
</svg>
